<svg width="60" height="60" viewBox="0 0 60 60" fill="none" xmlns="http://www.w3.org/2000/svg">
<g clip-path="url(#clip0_1493_1085)">
<path d="M44.1784 46.5244H15.7366C14.3191 46.5244 13.1641 45.3694 13.1641 43.9519V11.5725C13.1641 10.155 14.3191 9 15.7366 9H44.1784C45.5959 9 46.7509 10.155 46.7509 11.5725V43.9519C46.7509 45.3759 45.5959 46.5244 44.1784 46.5244ZM15.7366 10.2731C15.0213 10.2731 14.4372 10.8572 14.4372 11.5725V43.9519C14.4372 44.6672 15.0213 45.2513 15.7366 45.2513H44.1784C44.8938 45.2513 45.4778 44.6672 45.4778 43.9519V11.5725C45.4778 10.8572 44.8938 10.2731 44.1784 10.2731H15.7366Z" fill="#2D3091"/>
<path d="M46.1144 34.527H13.8006C13.4463 34.527 13.1641 34.2448 13.1641 33.8905C13.1641 33.5361 13.4463 33.2539 13.8006 33.2539H46.1144C46.4688 33.2539 46.7509 33.5361 46.7509 33.8905C46.7509 34.2383 46.4688 34.527 46.1144 34.527Z" fill="#2D3091"/>
<path d="M46.1144 18.0895H13.8006C13.4463 18.0895 13.1641 17.8073 13.1641 17.453C13.1641 17.0986 13.4463 16.8164 13.8006 16.8164H46.1144C46.4688 16.8164 46.7509 17.0986 46.7509 17.453C46.7509 17.8073 46.4688 18.0895 46.1144 18.0895Z" fill="#2D3091"/>
<path d="M20.6509 43.8995C18.6691 43.8995 17.0547 42.2852 17.0547 40.3033C17.0547 38.3214 18.6691 36.707 20.6509 36.707C22.6328 36.707 24.2472 38.3214 24.2472 40.3033C24.2472 42.2852 22.6394 43.8995 20.6509 43.8995ZM20.6509 37.9802C19.3713 37.9802 18.3278 39.0236 18.3278 40.3033C18.3278 41.583 19.3713 42.6264 20.6509 42.6264C21.9306 42.6264 22.9741 41.583 22.9741 40.3033C22.9741 39.017 21.9372 37.9802 20.6509 37.9802Z" fill="#2D3091"/>
<path d="M39.2603 43.8995C37.2784 43.8995 35.6641 42.2852 35.6641 40.3033C35.6641 38.3214 37.2784 36.707 39.2603 36.707C41.2422 36.707 42.8566 38.3214 42.8566 40.3033C42.8566 42.2852 41.2422 43.8995 39.2603 43.8995ZM39.2603 37.9802C37.9806 37.9802 36.9372 39.0236 36.9372 40.3033C36.9372 41.583 37.9806 42.6264 39.2603 42.6264C40.54 42.6264 41.5834 41.583 41.5834 40.3033C41.5834 39.017 40.54 37.9802 39.2603 37.9802Z" fill="#2D3091"/>
<path d="M21.5075 50.9987H16.5988C15.7981 50.9987 15.1484 50.3491 15.1484 49.5484V45.8866C15.1484 45.5322 15.4306 45.25 15.785 45.25C16.1394 45.25 16.4216 45.5322 16.4216 45.8866V49.5484C16.4216 49.6469 16.5003 49.7256 16.5988 49.7256H21.5075C21.6059 49.7256 21.6847 49.6469 21.6847 49.5484V45.8866C21.6847 45.5322 21.9669 45.25 22.3212 45.25C22.6756 45.25 22.9578 45.5322 22.9578 45.8866V49.5484C22.9513 50.3491 22.3016 50.9987 21.5075 50.9987Z" fill="#2D3091"/>
<path d="M43.3434 50.9987H38.4347C37.6341 50.9987 36.9844 50.3491 36.9844 49.5484V45.8866C36.9844 45.5322 37.2666 45.25 37.6209 45.25C37.9753 45.25 38.2575 45.5322 38.2575 45.8866V49.5484C38.2575 49.6469 38.3362 49.7256 38.4347 49.7256H43.3434C43.4353 49.7256 43.5075 49.6469 43.5075 49.5484V45.8866C43.5075 45.5322 43.7897 45.25 44.1441 45.25C44.4984 45.25 44.7806 45.5322 44.7806 45.8866V49.5484C44.7806 50.3491 44.1375 50.9987 43.3434 50.9987Z" fill="#2D3091"/>
<path d="M49.5466 26.7127H46.1209C45.7666 26.7127 45.4844 26.4305 45.4844 26.0761C45.4844 25.7217 45.7666 25.4395 46.1209 25.4395H49.5466C49.6188 25.4395 49.6975 25.3673 49.6975 25.2755V18.2405C49.6975 18.1552 49.6188 18.0895 49.5466 18.0895H46.1209C45.7666 18.0895 45.4844 17.8073 45.4844 17.453C45.4844 17.0986 45.7666 16.8164 46.1209 16.8164H49.5466C50.3341 16.8164 50.9706 17.453 50.9706 18.2405V25.2755C50.9706 26.0695 50.3275 26.7127 49.5466 26.7127Z" fill="#2D3091"/>
<path d="M13.8022 26.7127L10.4488 26.6995C9.66781 26.6995 9.03125 26.063 9.03125 25.2755V18.2405C9.03125 17.453 9.66781 16.8164 10.4553 16.8164H13.8087C14.1631 16.8164 14.4453 17.0986 14.4453 17.453C14.4453 17.8073 14.1631 18.0895 13.8087 18.0895H10.4488C10.3766 18.0895 10.2978 18.1486 10.2978 18.2405V25.2755C10.2978 25.3673 10.3766 25.4264 10.4488 25.4264L13.8022 25.4395C14.1566 25.4395 14.4387 25.7283 14.4387 26.0761C14.4387 26.4305 14.15 26.7127 13.8022 26.7127Z" fill="#2D3091"/>
<path d="M34.8575 14.1598H25.0662C24.7119 14.1598 24.4297 13.8777 24.4297 13.5233C24.4297 13.1689 24.7119 12.8867 25.0662 12.8867H34.8575C35.2119 12.8867 35.4941 13.1689 35.4941 13.5233C35.4941 13.8777 35.2119 14.1598 34.8575 14.1598Z" fill="#2D3091"/>
<path d="M33.8144 40.9411H26.1756C25.8213 40.9411 25.5391 40.6589 25.5391 40.3045C25.5391 39.9502 25.8213 39.668 26.1756 39.668H33.8144C34.1688 39.668 34.4509 39.9502 34.4509 40.3045C34.4509 40.6589 34.1622 40.9411 33.8144 40.9411Z" fill="#2D3091"/>
</g>
<defs>
<clipPath id="clip0_1493_1085">
<rect width="42" height="42" fill="white" transform="translate(9 9)"/>
</clipPath>
</defs>
</svg>
