<svg width="40" height="40" viewBox="0 0 40 40" fill="none" xmlns="http://www.w3.org/2000/svg">
<path d="M14.1688 20.2008C17.4548 20.2008 20.1187 17.5369 20.1187 14.2508C20.1187 10.9647 17.4548 8.30078 14.1688 8.30078C10.8827 8.30078 8.21875 10.9647 8.21875 14.2508C8.21875 17.5369 10.8827 20.2008 14.1688 20.2008Z" stroke="#2D3091" stroke-miterlimit="10" stroke-linecap="round" stroke-linejoin="round"/>
<path d="M6.17188 33.5V27.0812C6.17188 24.425 8.65937 22.25 11.6969 22.25H16.6469C19.6844 22.25 22.1719 24.425 22.1719 27.0812V33.5" stroke="#2D3091" stroke-miterlimit="10" stroke-linecap="round" stroke-linejoin="round"/>
<path d="M29.1719 13.5625C31.2602 13.5625 32.9531 11.8696 32.9531 9.78125C32.9531 7.69292 31.2602 6 29.1719 6C27.0835 6 25.3906 7.69292 25.3906 9.78125C25.3906 11.8696 27.0835 13.5625 29.1719 13.5625Z" stroke="#2D3091" stroke-miterlimit="10" stroke-linecap="round" stroke-linejoin="round"/>
<path d="M24.0938 22.4992V18.4242C24.0938 16.7367 25.6688 15.3555 27.6 15.3555H30.7437C32.675 15.3555 34.25 16.7367 34.25 18.4242V22.4992" stroke="#2D3091" stroke-miterlimit="10" stroke-linecap="round" stroke-linejoin="round"/>
<path d="M10.8828 24.4132V28.0007C10.8828 28.1632 11.0641 28.257 11.2141 28.182L14.0266 26.6507C14.1203 26.6007 14.2453 26.6007 14.3391 26.6507L17.1516 28.182C17.2953 28.2632 17.4828 28.1632 17.4828 28.0007V24.4132C17.4828 24.2507 17.3016 24.157 17.1516 24.232L14.3391 25.7632C14.2453 25.8132 14.1203 25.8132 14.0266 25.7632L11.2141 24.232C11.0641 24.1507 10.8828 24.2507 10.8828 24.4132Z" fill="#2D3091"/>
<path d="M27.6016 16.7939V18.6127C27.6016 18.6939 27.6891 18.7439 27.7578 18.7064L29.1016 17.9314C29.1453 17.9064 29.2016 17.9064 29.2516 17.9314L30.5953 18.7064C30.6641 18.7439 30.7516 18.6939 30.7516 18.6127V16.7939C30.7516 16.7127 30.6641 16.6627 30.5953 16.7002L29.2516 17.4752C29.2078 17.5002 29.1516 17.5002 29.1016 17.4752L27.7578 16.7002C27.6891 16.6627 27.6016 16.7127 27.6016 16.7939Z" fill="#2D3091"/>
</svg>
