<svg width="48" height="48" viewBox="0 0 48 48" fill="none" xmlns="http://www.w3.org/2000/svg">
<path d="M22.5653 6.90712C23.0263 5.97324 23.2568 5.5063 23.5697 5.35712C23.8419 5.22732 24.1582 5.22732 24.4304 5.35712C24.7433 5.5063 24.9738 5.97324 25.4348 6.90712L29.8081 15.7671C29.9442 16.0428 30.0123 16.1806 30.1117 16.2876C30.1997 16.3824 30.3053 16.4592 30.4226 16.5137C30.5551 16.5753 30.7072 16.5976 31.0114 16.642L40.794 18.0719C41.8241 18.2225 42.3392 18.2978 42.5776 18.5494C42.785 18.7683 42.8825 19.0691 42.843 19.368C42.7976 19.7116 42.4247 20.0748 41.6789 20.8013L34.6029 27.6933C34.3823 27.9082 34.272 28.0156 34.2009 28.1434C34.1378 28.2566 34.0974 28.3809 34.0818 28.5095C34.0642 28.6547 34.0902 28.8065 34.1423 29.11L35.8119 38.8447C35.988 39.8715 36.0761 40.3848 35.9106 40.6895C35.7666 40.9545 35.5107 41.1405 35.2141 41.1954C34.8732 41.2586 34.4122 41.0162 33.4902 40.5313L24.7448 35.9322C24.4723 35.7889 24.336 35.7172 24.1925 35.6891C24.0654 35.6641 23.9347 35.6641 23.8076 35.6891C23.664 35.7172 23.5278 35.7889 23.2553 35.9322L14.5098 40.5313C13.5878 41.0162 13.1268 41.2586 12.7859 41.1954C12.4894 41.1405 12.2334 40.9545 12.0895 40.6895C11.924 40.3848 12.0121 39.8715 12.1881 38.8447L13.8578 29.11C13.9098 28.8065 13.9359 28.6547 13.9182 28.5095C13.9026 28.3809 13.8622 28.2566 13.7992 28.1434C13.728 28.0156 13.6178 27.9082 13.3972 27.6933L6.32112 20.8012C5.57533 20.0748 5.20243 19.7116 5.15705 19.368C5.11757 19.0691 5.21511 18.7683 5.4225 18.5494C5.66087 18.2978 6.17594 18.2225 7.20609 18.0719L16.9886 16.642C17.2928 16.5976 17.445 16.5753 17.5774 16.5137C17.6947 16.4592 17.8003 16.3824 17.8884 16.2876C17.9878 16.1806 18.0559 16.0428 18.1919 15.7671L22.5653 6.90712Z" stroke="#2D3091" stroke-width="2" stroke-linecap="round" stroke-linejoin="round"/>
</svg>
