<svg width="60" height="60" viewBox="0 0 60 60" fill="none" xmlns="http://www.w3.org/2000/svg">
<g clip-path="url(#clip0_1493_1077)">
<path d="M9.25446 36.0689L11.6366 33.6802C11.8598 33.457 12.1879 33.3717 12.4898 33.457L19.9907 35.5439C21.6707 33.3652 23.7576 30.8583 26.0741 28.2267L11.7154 17.8908C11.5054 17.7398 11.3741 17.5102 11.3545 17.2542C11.3348 16.9983 11.4266 16.7489 11.6104 16.5652L15.141 13.0345C15.3904 12.7852 15.771 12.7064 16.0991 12.8442L33.6013 20.1483C33.8441 19.8989 34.087 19.6561 34.3298 19.4133C38.661 15.0886 42.1785 12.0698 44.7904 10.462C45.7616 9.85828 48.7148 8.0339 50.3423 9.65484C51.9698 11.2758 50.1388 14.2355 49.5351 15.2067C47.9207 17.8186 44.9085 21.3361 40.5773 25.6608C40.3345 25.9036 40.0916 26.1464 39.8423 26.3892L47.1529 43.898C47.2907 44.2261 47.212 44.6002 46.9626 44.8561L43.432 48.3867C43.2482 48.5705 42.9988 48.6623 42.7429 48.6427C42.487 48.623 42.2507 48.4917 42.1063 48.2817L31.7704 33.923C29.1388 36.2395 26.632 38.3264 24.4532 40.0064L26.5401 47.5073C26.6254 47.8092 26.5401 48.1373 26.317 48.3605L23.9348 50.7427C23.7641 50.9067 23.541 50.9986 23.3048 50.9986C23.272 50.9986 23.2391 50.9986 23.2063 50.992C22.9438 50.9658 22.7076 50.8148 22.5632 50.5917L18.3895 44.0161C17.4773 44.4295 16.5651 44.6264 15.9679 44.0227C15.3707 43.4255 15.5676 42.5133 15.9745 41.6011L9.39884 37.4273C9.17571 37.283 9.02477 37.0467 8.99852 36.7842C8.97227 36.5217 9.06415 36.2592 9.25446 36.0689ZM17.5823 40.5445C17.9695 40.7939 18.1007 41.2927 17.8841 41.6995C17.7004 42.0342 17.5823 42.2967 17.5035 42.4936C17.7004 42.4148 17.9629 42.2902 18.2976 42.113C18.6979 41.8964 19.2032 42.0277 19.4526 42.4148L23.4623 48.7345L24.7157 47.4811L22.6091 39.9014C22.5107 39.5536 22.6354 39.1861 22.9241 38.9695C25.372 37.1058 28.2791 34.6842 31.3373 31.9673C31.521 31.8033 31.7704 31.7245 32.0132 31.7508C32.2626 31.777 32.4857 31.9083 32.6301 32.1117L42.9332 46.418L45.322 44.0292L38.0048 26.5205C37.867 26.1923 37.9457 25.8117 38.2016 25.5623C38.5888 25.1817 38.9695 24.8077 39.3501 24.427C43.5763 20.1942 46.5098 16.7817 48.052 14.288C49.3054 12.2536 49.4038 11.1905 49.102 10.8952C49.0298 10.8164 47.0873 9.1364 35.5701 20.6536C35.196 21.0277 34.8154 21.4148 34.4348 21.802C34.1854 22.058 33.8048 22.1367 33.4701 21.9989L15.9679 14.6883L13.5791 17.077L27.8854 27.3736C28.0888 27.518 28.2135 27.7411 28.2463 27.9905C28.2726 28.2398 28.1938 28.4827 28.0298 28.6664C25.3129 31.718 22.8913 34.6252 21.0276 37.0795C20.811 37.3617 20.4435 37.4864 20.0957 37.3945L12.5226 35.288L11.2691 36.5414L17.5823 40.5445Z" fill="#2D3091"/>
</g>
<defs>
<clipPath id="clip0_1493_1077">
<rect width="42" height="42" fill="white" transform="matrix(-1 0 0 1 51 9)"/>
</clipPath>
</defs>
</svg>
