<svg width="48" height="48" viewBox="0 0 48 48" fill="none" xmlns="http://www.w3.org/2000/svg">
<path d="M19 17.9307C19 16.9761 19 16.4988 19.1995 16.2324C19.3733 16.0001 19.6394 15.8549 19.9288 15.8342C20.2608 15.8105 20.6622 16.0686 21.4652 16.5848L30.9064 22.6541C31.6032 23.102 31.9516 23.326 32.0719 23.6108C32.177 23.8596 32.177 24.1404 32.0719 24.3892C31.9516 24.674 31.6032 24.898 30.9064 25.3459L21.4652 31.4152C20.6622 31.9314 20.2608 32.1895 19.9288 32.1658C19.6394 32.1451 19.3733 31.9998 19.1995 31.7676C19 31.5012 19 31.0239 19 30.0693V17.9307Z" stroke="#2D3091" stroke-width="2" stroke-linecap="round" stroke-linejoin="round"/>
<path d="M6 15.6C6 12.2397 6 10.5595 6.65396 9.27606C7.2292 8.14708 8.14708 7.2292 9.27606 6.65396C10.5595 6 12.2397 6 15.6 6H32.4C35.7603 6 37.4405 6 38.7239 6.65396C39.8529 7.2292 40.7708 8.14708 41.346 9.27606C42 10.5595 42 12.2397 42 15.6V32.4C42 35.7603 42 37.4405 41.346 38.7239C40.7708 39.8529 39.8529 40.7708 38.7239 41.346C37.4405 42 35.7603 42 32.4 42H15.6C12.2397 42 10.5595 42 9.27606 41.346C8.14708 40.7708 7.2292 39.8529 6.65396 38.7239C6 37.4405 6 35.7603 6 32.4V15.6Z" stroke="#2D3091" stroke-width="2" stroke-linecap="round" stroke-linejoin="round"/>
</svg>
