<svg width="60" height="60" viewBox="0 0 60 60" fill="none" xmlns="http://www.w3.org/2000/svg">
<path d="M44.574 11.2023C39.9983 9.09201 35.0284 8 30 8C24.9716 8 20.0017 9.09201 15.426 11.2023C14.6966 11.5441 14.0799 12.0913 13.6497 12.7785C13.2195 13.4656 12.994 14.2637 13.0001 15.0771V40.2522C13.0024 41.3915 13.4512 42.4833 14.248 43.2881C15.0447 44.0929 16.1244 44.5449 17.2501 44.545H18.9638L17.3051 49.5813C17.2604 49.7154 17.2423 49.857 17.2518 49.9982C17.2613 50.1393 17.2982 50.2772 17.3605 50.4038C17.4227 50.5305 17.5091 50.6435 17.6146 50.7363C17.7201 50.8291 17.8426 50.9 17.9752 50.9447C18.1078 50.9895 18.2479 51.0074 18.3873 50.9973C18.5267 50.9871 18.6628 50.9493 18.7878 50.8858C18.9127 50.8224 19.024 50.7346 19.1154 50.6275C19.2067 50.5204 19.2763 50.3961 19.3201 50.2618L19.7863 48.8462H40.2136L40.6799 50.2618C40.7698 50.5313 40.9615 50.7537 41.2132 50.8804C41.4648 51.0071 41.7558 51.0277 42.0224 50.9376C42.289 50.8476 42.5095 50.6543 42.6355 50.4001C42.7616 50.1459 42.7829 49.8514 42.6949 49.5813L41.0362 44.545H42.7499C43.8767 44.5439 44.957 44.0904 45.7538 43.284C46.5506 42.4776 46.9987 41.3842 46.9998 40.2438V15.0876C47.0069 14.2726 46.7819 13.4728 46.3517 12.7838C45.9215 12.0947 45.3043 11.5457 44.574 11.2023ZM15.1251 29.4908V18.7378H28.9375V29.4908H15.1251ZM31.0625 18.7378H44.8749V29.4908H31.0625V18.7378ZM16.2996 13.1618C20.5983 11.1677 25.2713 10.1354 30 10.1354C34.7287 10.1354 39.4017 11.1677 43.7003 13.1618C44.058 13.3349 44.359 13.6085 44.5673 13.95C44.7755 14.2915 44.8823 14.6864 44.8749 15.0876V16.5872H15.1251V15.0771C15.1186 14.6775 15.2259 14.2843 15.4341 13.9447C15.6424 13.6051 15.9429 13.3333 16.2996 13.1618ZM39.5053 46.6956H20.4946L21.2029 44.545H38.797L39.5053 46.6956ZM42.7499 42.3944H17.2501C16.6878 42.3949 16.1483 42.1696 15.7499 41.768C15.3516 41.3664 15.1269 40.8213 15.1251 40.2522V31.6414H44.8749V40.2438C44.8741 40.814 44.65 41.3606 44.2517 41.7637C43.8533 42.1669 43.3132 42.3937 42.7499 42.3944Z" fill="#2D3091"/>
<path d="M20.5 33C19.8078 33 19.1311 33.2053 18.5555 33.5899C17.9799 33.9744 17.5313 34.5211 17.2664 35.1606C17.0015 35.8002 16.9322 36.5039 17.0673 37.1828C17.2023 37.8617 17.5356 38.4854 18.0251 38.9749C18.5146 39.4644 19.1383 39.7977 19.8172 39.9327C20.4961 40.0678 21.1999 39.9985 21.8394 39.7336C22.4789 39.4687 23.0256 39.0201 23.4101 38.4445C23.7947 37.8689 24 37.1922 24 36.5C23.999 35.5721 23.6299 34.6824 22.9738 34.0262C22.3176 33.3701 21.4279 33.001 20.5 33ZM20.5 37.6667C20.2693 37.6667 20.0437 37.5982 19.8518 37.47C19.66 37.3419 19.5104 37.1596 19.4221 36.9465C19.3338 36.7333 19.3107 36.4987 19.3558 36.2724C19.4008 36.0461 19.5119 35.8382 19.675 35.675C19.8382 35.5119 20.0461 35.4008 20.2724 35.3558C20.4987 35.3107 20.7333 35.3338 20.9465 35.4221C21.1596 35.5104 21.3419 35.66 21.47 35.8518C21.5982 36.0437 21.6667 36.2693 21.6667 36.5C21.6665 36.8094 21.5435 37.106 21.3247 37.3247C21.106 37.5435 20.8094 37.6665 20.5 37.6667Z" fill="#2D3091"/>
<path d="M39.5 33C38.8078 33 38.1311 33.2053 37.5555 33.5899C36.9799 33.9744 36.5313 34.5211 36.2664 35.1606C36.0015 35.8002 35.9322 36.5039 36.0673 37.1828C36.2023 37.8617 36.5356 38.4854 37.0251 38.9749C37.5146 39.4644 38.1383 39.7977 38.8172 39.9327C39.4961 40.0678 40.1998 39.9985 40.8394 39.7336C41.4789 39.4687 42.0256 39.0201 42.4101 38.4445C42.7947 37.8689 43 37.1922 43 36.5C42.999 35.5721 42.6299 34.6824 41.9738 34.0262C41.3176 33.3701 40.4279 33.001 39.5 33ZM39.5 37.6667C39.2693 37.6667 39.0437 37.5982 38.8518 37.47C38.66 37.3419 38.5104 37.1596 38.4221 36.9465C38.3338 36.7333 38.3107 36.4987 38.3558 36.2724C38.4008 36.0461 38.5119 35.8382 38.675 35.675C38.8382 35.5119 39.0461 35.4008 39.2724 35.3558C39.4987 35.3107 39.7333 35.3338 39.9465 35.4221C40.1596 35.5104 40.3419 35.66 40.47 35.8518C40.5982 36.0437 40.6667 36.2693 40.6667 36.5C40.6665 36.8094 40.5435 37.106 40.3247 37.3247C40.106 37.5435 39.8094 37.6665 39.5 37.6667Z" fill="#2D3091"/>
</svg>
