<svg width="35" height="51" viewBox="0 0 35 51" fill="none" xmlns="http://www.w3.org/2000/svg">
<line y1="1" x2="35" y2="1" stroke="#2D3091" stroke-width="2"/>
<path d="M18.2071 22.2929C17.8166 21.9024 17.1834 21.9024 16.7929 22.2929L10.4289 28.6569C10.0384 29.0474 10.0384 29.6805 10.4289 30.0711C10.8195 30.4616 11.4526 30.4616 11.8431 30.0711L17.5 24.4142L23.1569 30.0711C23.5474 30.4616 24.1805 30.4616 24.5711 30.0711C24.9616 29.6805 24.9616 29.0474 24.5711 28.6569L18.2071 22.2929ZM16.5 50L16.5 51L18.5 51L18.5 50L17.5 50L16.5 50ZM17.5 23L16.5 23L16.5 50L17.5 50L18.5 50L18.5 23L17.5 23Z" fill="#2D3091"/>
</svg>
