<svg width="48" height="22" viewBox="0 0 48 22" fill="none" xmlns="http://www.w3.org/2000/svg">
<path d="M34.1442 8.74041C34.1442 8.74041 29.9129 0.75 22.6845 0.75C19.584 0.75 17.3223 0.75 17.3223 0.75H8.96666C7.24944 0.75 5.66497 1.67391 4.81925 3.16847L1.03906 9.849" stroke="#2D3091" stroke-width="1.5" stroke-miterlimit="10" stroke-linejoin="round"/>
<path d="M19.7344 0.794922V8.65314" stroke="#2D3091" stroke-width="1.5" stroke-miterlimit="10" stroke-linejoin="round"/>
<path d="M10.1953 0.794922V8.65314" stroke="#2D3091" stroke-width="1.5" stroke-miterlimit="10" stroke-linejoin="round"/>
<path d="M39.5088 17.9834H46.6875V14.1989C46.6875 12.2107 45.2193 10.5279 43.2495 10.2583L34.1461 8.74023H2.95378C1.73663 8.74023 0.75 9.72686 0.75 10.944V17.9835H6.45384" stroke="#2D3091" stroke-width="1.5" stroke-miterlimit="22.9256" stroke-linecap="round" stroke-linejoin="round"/>
<path d="M12.9766 17.9844H32.9825" stroke="#2D3091" stroke-width="1.5" stroke-miterlimit="22.9256" stroke-linecap="round" stroke-linejoin="round"/>
<path d="M46.5736 13.2461H44.1406" stroke="#2D3091" stroke-width="1.5" stroke-miterlimit="10" stroke-linecap="round" stroke-linejoin="round"/>
<path d="M36.2466 20.9965C38.0483 20.9965 39.5088 19.5497 39.5088 17.7649C39.5088 15.9801 38.0483 14.5332 36.2466 14.5332C34.4449 14.5332 32.9844 15.9801 32.9844 17.7649C32.9844 19.5497 34.4449 20.9965 36.2466 20.9965Z" stroke="#2D3091" stroke-width="1.5" stroke-miterlimit="10" stroke-linecap="round" stroke-linejoin="round"/>
<path d="M9.71534 20.9965C11.517 20.9965 12.9776 19.5497 12.9776 17.7649C12.9776 15.9801 11.517 14.5332 9.71534 14.5332C7.91367 14.5332 6.45312 15.9801 6.45312 17.7649C6.45312 19.5497 7.91367 20.9965 9.71534 20.9965Z" stroke="#2D3091" stroke-width="1.5" stroke-miterlimit="10" stroke-linecap="round" stroke-linejoin="round"/>
</svg>
