<svg width="38" height="46" viewBox="0 0 38 46" fill="none" xmlns="http://www.w3.org/2000/svg">
<path d="M37 19C37 33 19 45 19 45C19 45 1 33 1 19C1 14.2261 2.89642 9.64773 6.27208 6.27208C9.64773 2.89642 14.2261 1 19 1C23.7739 1 28.3523 2.89642 31.7279 6.27208C35.1036 9.64773 37 14.2261 37 19Z" stroke="#2D3091" stroke-width="2" stroke-linecap="round" stroke-linejoin="round"/>
<path d="M19 25C22.3137 25 25 22.3137 25 19C25 15.6863 22.3137 13 19 13C15.6863 13 13 15.6863 13 19C13 22.3137 15.6863 25 19 25Z" stroke="#2D3091" stroke-width="2" stroke-linecap="round" stroke-linejoin="round"/>
</svg>
